<?xml version="1.0" encoding="UTF-8" standalone="no"?>
<!DOCTYPE svg PUBLIC "-//W3C//DTD SVG 1.1//EN" "http://www.w3.org/Graphics/SVG/1.1/DTD/svg11.dtd">
<svg width="100%" height="100%" viewBox="0 0 2000 2000" version="1.1" xmlns="http://www.w3.org/2000/svg" xmlns:xlink="http://www.w3.org/1999/xlink" xml:space="preserve" xmlns:serif="http://www.serif.com/" style="fill-rule:evenodd;clip-rule:evenodd;stroke-linecap:round;stroke-linejoin:round;stroke-miterlimit:1.5;">
    <g transform="matrix(1.088842,0,0,1.066428,-71.533471,-34.21031)">
        <g id="Background">
            <path d="M1902.511,535.896L1902.511,1403.683C1902.511,1681.747 1681.406,1907.5 1409.066,1907.5L559.142,1907.5C286.802,1907.5 65.697,1681.747 65.697,1403.683L65.697,535.896C65.697,257.832 286.802,32.079 559.142,32.079L1409.066,32.079C1681.406,32.079 1902.511,257.832 1902.511,535.896Z" style="fill:url(#_Linear1);"/>
        </g>
    </g>
    <g id="Plane" transform="matrix(6.1036,0,0,6.1036,974.986124,975.000731)">
        <path d="M16.63,105.75C16.64,101.72 18.93,97.78 22.66,93.37L1.09,79.73C-0.27,79.14 -0.24,78.31 0.55,77.33L5.12,73.43C5.95,72.92 6.83,72.7 7.78,72.96L34.4,77.46L56.58,53.44L4.8,18.41C3.49,17.64 3.38,16.77 4.73,15.76L12.2,9.8L79.7,28.77L99.64,7.45C106.33,1.66 112.83,-0.93 117.82,0.3C120.57,0.98 121.54,1.8 122.39,4.38C124.04,9.44 121.48,16.24 115.43,23.24L94.11,43.18L113.08,110.68L107.12,118.15C106.11,119.49 105.24,119.38 104.47,118.08L69.43,66.31L45.41,88.48L49.91,115.1C50.17,116.04 49.96,116.92 49.44,117.76L45.54,122.33C44.57,123.12 43.73,123.15 43.14,121.79L29.5,100.22C25.07,103.96 21.13,106.25 17.08,106.25C16.71,106.24 16.63,106.11 16.63,105.75Z" style="fill:white;"/>
    </g>
    <g id="Radar" transform="matrix(0.649141,0.649141,-0.649141,0.649141,798.97375,-738.704146)">
        <g transform="matrix(1.704431,0,0,1.704431,114.867027,-836.735785)">
            <path d="M488.389,1541.639C396.978,1450.228 340.407,1323.977 340.407,1184.618C340.407,1045.259 396.978,919.008 488.389,827.597" style="fill:none;stroke:white;stroke-width:63.91px;"/>
        </g>
        <g transform="matrix(1.278324,0,0,1.278324,475.102568,-331.960782)">
            <path d="M488.389,1541.639C396.978,1450.228 340.407,1323.977 340.407,1184.618C340.407,1045.259 396.978,919.008 488.389,827.597" style="fill:none;stroke:white;stroke-width:85.21px;"/>
        </g>
        <g transform="matrix(0.852216,0,0,0.852216,835.338109,172.814221)">
            <path d="M488.389,1541.639C396.978,1450.228 340.407,1323.977 340.407,1184.618C340.407,1045.259 396.978,919.008 488.389,827.597" style="fill:none;stroke:white;stroke-width:127.82px;"/>
        </g>
    </g>
    <defs>
        <linearGradient id="_Linear1" x1="0" y1="0" x2="1" y2="0" gradientUnits="userSpaceOnUse" gradientTransform="matrix(1836.814351,0,0,1875.420158,65.696853,969.789431)"><stop offset="0" style="stop-color:black;stop-opacity:1"/><stop offset="1" style="stop-color:rgb(0,97,146);stop-opacity:1"/></linearGradient>
    </defs>
</svg>
